<?xml version="1.0" encoding="utf-8"?>
<!-- Generator: Adobe Illustrator 19.0.0, SVG Export Plug-In . SVG Version: 6.00 Build 0)  -->
<svg version="1.1" id="Layer_1" xmlns="http://www.w3.org/2000/svg" xmlns:xlink="http://www.w3.org/1999/xlink" x="0px" y="0px"
	 viewBox="0 0 439.1 216.1" style="enable-background:new 0 0 439.1 216.1;" xml:space="preserve">
<style type="text/css">
	.st0{fill:#51BAAC;}
</style>
<g>
	<path class="st0" d="M64.2,189.3l-1.4,1.3c-1-1-2.2-1.7-3.4-2.2c-1.2-0.5-2.4-0.8-3.6-0.8c-1.4,0-2.8,0.3-4.1,1
		c-1.3,0.7-2.3,1.6-3,2.8c-0.7,1.2-1.1,2.4-1.1,3.7c0,1.3,0.4,2.6,1.1,3.8c0.7,1.2,1.8,2.1,3.1,2.8c1.3,0.7,2.7,1,4.3,1
		c1.9,0,3.5-0.5,4.8-1.5c1.3-1,2.1-2.4,2.3-4h-5.9v-1.7h7.9c0,2.7-0.9,4.9-2.5,6.5c-1.7,1.6-3.9,2.4-6.7,2.4c-3.4,0-6.1-1.1-8.1-3.3
		c-1.5-1.7-2.3-3.7-2.3-6c0-1.7,0.4-3.2,1.3-4.7c0.9-1.4,2.1-2.6,3.6-3.4c1.5-0.8,3.3-1.2,5.2-1.2c1.6,0,3,0.3,4.4,0.8
		C61.5,187.2,62.9,188.1,64.2,189.3"/>
	<path class="st0" d="M67.8,190.9h1.8v1.9c0.5-0.8,1.1-1.3,1.7-1.7c0.6-0.4,1.2-0.6,1.9-0.6c0.5,0,1,0.1,1.6,0.4l-0.9,1.4
		c-0.4-0.2-0.7-0.2-0.9-0.2c-0.6,0-1.1,0.2-1.7,0.7c-0.5,0.5-1,1.2-1.2,2.2c-0.2,0.7-0.3,2.3-0.3,4.5v4.4h-1.8V190.9z"/>
	<path class="st0" d="M89.8,190.9V204H88v-2.3c-0.7,0.9-1.6,1.5-2.5,1.9c-0.9,0.4-1.9,0.6-3,0.6c-1.9,0-3.6-0.7-4.9-2
		c-1.4-1.3-2-3-2-4.9c0-1.9,0.7-3.5,2.1-4.8c1.4-1.3,3-2,5-2c1.1,0,2.1,0.2,3,0.7c0.9,0.5,1.7,1.1,2.4,2.1v-2.4H89.8z M82.8,192.2
		c-1,0-1.9,0.2-2.7,0.7c-0.8,0.5-1.5,1.1-2,1.9c-0.5,0.8-0.7,1.7-0.7,2.6c0,0.9,0.2,1.8,0.7,2.6c0.5,0.8,1.2,1.5,2,2
		c0.8,0.5,1.7,0.7,2.7,0.7c1,0,1.9-0.2,2.7-0.7c0.9-0.5,1.5-1.1,2-1.9c0.5-0.8,0.7-1.7,0.7-2.7c0-1.5-0.5-2.8-1.6-3.8
		C85.5,192.7,84.3,192.2,82.8,192.2"/>
	<path class="st0" d="M93.7,190.9h1.8v2.4c0.7-0.9,1.5-1.6,2.4-2.1c0.9-0.5,1.9-0.7,3-0.7c1.9,0,3.6,0.7,5,2c1.4,1.3,2.1,3,2.1,4.8
		c0,1.9-0.7,3.6-2,4.9c-1.4,1.3-3,2-4.9,2c-1.1,0-2.1-0.2-3-0.6c-0.9-0.4-1.7-1.1-2.5-1.9v7h-1.8V190.9z M100.7,192.2
		c-1.5,0-2.8,0.5-3.8,1.5c-1,1-1.6,2.3-1.6,3.8c0,1,0.2,1.9,0.7,2.7c0.5,0.8,1.1,1.4,2,1.9c0.9,0.5,1.8,0.7,2.7,0.7
		c0.9,0,1.8-0.2,2.7-0.7c0.8-0.5,1.5-1.1,2-2c0.5-0.8,0.7-1.7,0.7-2.6c0-0.9-0.2-1.8-0.7-2.6c-0.5-0.8-1.1-1.5-2-1.9
		C102.6,192.4,101.7,192.2,100.7,192.2"/>
	<path class="st0" d="M111.2,185.8h1.8v7.4c0.7-0.9,1.5-1.6,2.3-2c0.9-0.4,1.8-0.7,2.8-0.7c1,0,1.9,0.2,2.7,0.7
		c0.8,0.5,1.4,1.2,1.7,2c0.4,0.8,0.6,2.2,0.6,3.9v6.7h-1.8v-6.2c0-1.5-0.1-2.5-0.2-3c-0.2-0.9-0.6-1.5-1.2-2
		c-0.6-0.4-1.3-0.7-2.3-0.7c-1.1,0-2,0.3-2.8,1c-0.8,0.7-1.4,1.5-1.7,2.5c-0.2,0.6-0.3,1.8-0.3,3.6v4.8h-1.8V185.8z"/>
	<path class="st0" d="M127.4,185.5c0.4,0,0.7,0.1,1,0.4c0.3,0.3,0.4,0.6,0.4,1c0,0.4-0.1,0.7-0.4,1c-0.3,0.3-0.6,0.4-1,0.4
		c-0.4,0-0.7-0.1-1-0.4c-0.3-0.3-0.4-0.6-0.4-1c0-0.4,0.1-0.7,0.4-1C126.7,185.7,127,185.5,127.4,185.5 M126.5,190.9h1.8V204h-1.8
		V190.9z"/>
	<path class="st0" d="M145.2,193.6l-1.4,0.8c-1.2-1.5-2.8-2.3-4.9-2.3c-1.7,0-3,0.5-4.1,1.5c-1.1,1-1.6,2.3-1.6,3.7
		c0,1,0.3,1.9,0.8,2.7c0.5,0.8,1.2,1.5,2.1,2c0.9,0.5,1.9,0.7,3,0.7c2,0,3.6-0.8,4.9-2.3l1.4,0.9c-0.7,0.9-1.5,1.7-2.6,2.2
		c-1.1,0.5-2.3,0.8-3.7,0.8c-2.2,0-3.9-0.7-5.4-2c-1.4-1.3-2.1-2.9-2.1-4.8c0-1.3,0.3-2.4,1-3.5c0.7-1.1,1.6-1.9,2.7-2.5
		c1.2-0.6,2.5-0.9,3.9-0.9c0.9,0,1.8,0.1,2.6,0.4c0.8,0.3,1.6,0.6,2.1,1C144.2,192.4,144.7,193,145.2,193.6"/>
	<path class="st0" d="M155.9,204v-17.7h3.8c2.8,0,4.8,0.2,6,0.6c1.8,0.6,3.2,1.6,4.2,3.1c1,1.5,1.5,3.3,1.5,5.3
		c0,1.8-0.4,3.3-1.2,4.7c-0.8,1.3-1.8,2.3-3.1,3c-1.3,0.6-3.1,1-5.4,1H155.9z M157.7,202.3h2.1c2.5,0,4.3-0.2,5.3-0.5
		c1.4-0.4,2.5-1.2,3.3-2.3c0.8-1.1,1.2-2.5,1.2-4.1c0-1.7-0.4-3.2-1.3-4.4c-0.9-1.2-2.1-2-3.6-2.5c-1.2-0.3-3.1-0.5-5.7-0.5h-1.3
		V202.3z"/>
	<path class="st0" d="M186.1,199.7l1.5,0.7c-0.5,0.9-1,1.7-1.7,2.2c-0.6,0.6-1.3,1-2.1,1.3c-0.8,0.3-1.7,0.4-2.7,0.4
		c-2.2,0-4-0.7-5.2-2.1c-1.3-1.4-1.9-3-1.9-4.8c0-1.7,0.5-3.1,1.6-4.4c1.3-1.7,3.1-2.5,5.4-2.5c2.3,0,4.2,0.8,5.6,2.5
		c1,1.2,1.5,2.7,1.5,4.5h-12.3c0,1.5,0.5,2.8,1.5,3.7c1,1,2.2,1.5,3.6,1.5c0.7,0,1.4-0.1,2-0.3c0.7-0.2,1.2-0.5,1.7-0.9
		C185.1,201.1,185.6,200.5,186.1,199.7 M186.1,196.1c-0.2-0.9-0.6-1.6-1-2.2c-0.4-0.5-1-1-1.8-1.3c-0.7-0.3-1.5-0.5-2.3-0.5
		c-1.3,0-2.5,0.4-3.4,1.2c-0.7,0.6-1.2,1.5-1.6,2.7H186.1z"/>
	<path class="st0" d="M198.2,192.3l-1.1,1.1c-0.9-0.9-1.9-1.3-2.7-1.3c-0.6,0-1.1,0.2-1.5,0.5c-0.4,0.4-0.6,0.8-0.6,1.3
		c0,0.4,0.2,0.8,0.5,1.2c0.3,0.4,1,0.9,2.1,1.4c1.3,0.6,2.2,1.3,2.7,1.9c0.5,0.6,0.7,1.3,0.7,2.1c0,1.1-0.4,2-1.2,2.7
		c-0.8,0.7-1.8,1.1-2.9,1.1c-0.8,0-1.5-0.2-2.2-0.5c-0.7-0.3-1.3-0.8-1.8-1.4l1.1-1.2c0.9,1,1.8,1.5,2.8,1.5c0.7,0,1.3-0.2,1.8-0.6
		c0.5-0.4,0.7-0.9,0.7-1.5c0-0.5-0.2-0.9-0.5-1.3c-0.3-0.4-1.1-0.8-2.2-1.4c-1.2-0.6-2.1-1.2-2.5-1.8c-0.4-0.6-0.7-1.3-0.7-2
		c0-1,0.4-1.8,1.1-2.5c0.7-0.7,1.6-1,2.7-1C195.7,190.6,196.9,191.2,198.2,192.3"/>
	<path class="st0" d="M201.9,185.5c0.4,0,0.7,0.1,1,0.4c0.3,0.3,0.4,0.6,0.4,1c0,0.4-0.1,0.7-0.4,1c-0.3,0.3-0.6,0.4-1,0.4
		c-0.4,0-0.7-0.1-1-0.4c-0.3-0.3-0.4-0.6-0.4-1c0-0.4,0.1-0.7,0.4-1C201.2,185.7,201.5,185.5,201.9,185.5 M201,190.9h1.8V204H201
		V190.9z"/>
	<path class="st0" d="M218.2,190.9h1.8v10.4c0,1.8-0.2,3.2-0.5,4c-0.5,1.2-1.3,2.1-2.4,2.8c-1.1,0.6-2.5,1-4.1,1
		c-1.2,0-2.2-0.2-3.1-0.5c-0.9-0.3-1.7-0.7-2.3-1.3c-0.6-0.5-1.1-1.3-1.6-2.3h1.9c0.5,0.9,1.2,1.5,2,1.9c0.8,0.4,1.8,0.6,3,0.6
		c1.2,0,2.2-0.2,3-0.6c0.8-0.4,1.4-1,1.8-1.6c0.4-0.6,0.5-1.7,0.5-3.1v-0.7c-0.7,0.8-1.5,1.4-2.4,1.9c-1,0.4-2,0.6-3,0.6
		c-1.3,0-2.4-0.3-3.5-0.9c-1.1-0.6-2-1.4-2.6-2.4c-0.6-1-0.9-2.1-0.9-3.3s0.3-2.3,0.9-3.4c0.6-1,1.5-1.9,2.6-2.5
		c1.1-0.6,2.3-0.9,3.5-0.9c1,0,2,0.2,2.8,0.6c0.9,0.4,1.7,1.1,2.5,2V190.9z M213,192.2c-1,0-1.9,0.2-2.8,0.7c-0.9,0.5-1.5,1.1-2,1.9
		c-0.5,0.8-0.7,1.7-0.7,2.6c0,1.4,0.5,2.6,1.5,3.6c1,0.9,2.3,1.4,3.9,1.4c1.6,0,2.9-0.5,3.9-1.4c1-0.9,1.5-2.2,1.5-3.7
		c0-1-0.2-1.9-0.7-2.6c-0.4-0.8-1.1-1.4-1.9-1.8C214.8,192.4,213.9,192.2,213,192.2"/>
	<path class="st0" d="M223.7,190.9h1.8v2.3c0.7-0.9,1.5-1.6,2.3-2c0.9-0.4,1.8-0.7,2.8-0.7c1,0,1.9,0.2,2.7,0.7
		c0.8,0.5,1.4,1.2,1.7,2c0.4,0.8,0.6,2.2,0.6,3.9v6.7h-1.8v-6.2c0-1.5-0.1-2.5-0.2-3c-0.2-0.9-0.6-1.5-1.2-2
		c-0.6-0.4-1.3-0.7-2.3-0.7c-1.1,0-2,0.3-2.8,1c-0.8,0.7-1.4,1.5-1.7,2.5c-0.2,0.7-0.3,1.8-0.3,3.6v4.8h-1.8V190.9z"/>
	<path class="st0" d="M263.8,189.6l-1.5,1.1c-0.8-1-1.8-1.8-2.9-2.3c-1.1-0.5-2.4-0.8-3.7-0.8c-1.5,0-2.8,0.3-4.1,1
		c-1.3,0.7-2.2,1.6-2.9,2.7c-0.7,1.1-1,2.4-1,3.9c0,2.2,0.8,4,2.3,5.4c1.5,1.4,3.5,2.2,5.8,2.2c2.6,0,4.7-1,6.5-2.9l1.5,1.1
		c-0.9,1.1-2.1,2-3.4,2.6c-1.4,0.6-2.9,0.9-4.6,0.9c-3.2,0-5.8-1-7.6-3.1c-1.6-1.7-2.3-3.8-2.3-6.3c0-2.6,0.9-4.8,2.8-6.5
		c1.9-1.8,4.3-2.7,7.1-2.7c1.7,0,3.3,0.3,4.7,1C261.8,187.5,262.9,188.4,263.8,189.6"/>
	<path class="st0" d="M273.7,190.6c2.1,0,3.8,0.7,5.2,2.2c1.3,1.3,1.9,2.9,1.9,4.7c0,1.8-0.7,3.4-2,4.8c-1.3,1.4-3,2.1-5.1,2.1
		c-2.1,0-3.8-0.7-5.1-2.1c-1.3-1.4-2-3-2-4.8c0-1.8,0.6-3.4,1.9-4.7C269.8,191.3,271.6,190.6,273.7,190.6 M273.7,192.2
		c-1.5,0-2.7,0.5-3.8,1.6c-1,1-1.6,2.3-1.6,3.8c0,0.9,0.2,1.8,0.7,2.6c0.5,0.8,1.1,1.5,1.9,1.9c0.8,0.4,1.7,0.7,2.7,0.7
		c1,0,1.9-0.2,2.7-0.7c0.8-0.4,1.5-1.1,1.9-1.9c0.5-0.8,0.7-1.7,0.7-2.6c0-1.5-0.5-2.7-1.6-3.8C276.4,192.7,275.1,192.2,273.7,192.2
		"/>
	<path class="st0" d="M284,190.9h1.8v2.3c0.6-0.8,1.2-1.4,1.9-1.8c0.9-0.5,1.8-0.8,2.8-0.8c0.7,0,1.3,0.1,1.9,0.4
		c0.6,0.3,1.1,0.6,1.5,1c0.4,0.4,0.7,1,1,1.8c0.6-1,1.3-1.8,2.2-2.3c0.9-0.5,1.8-0.8,2.8-0.8c0.9,0,1.8,0.2,2.5,0.7
		c0.7,0.5,1.3,1.1,1.6,1.9c0.3,0.8,0.5,2,0.5,3.7v7.2h-1.8v-7.2c0-1.4-0.1-2.4-0.3-2.9c-0.2-0.5-0.6-0.9-1.1-1.3
		c-0.5-0.3-1.1-0.5-1.8-0.5c-0.8,0-1.6,0.2-2.3,0.7c-0.7,0.5-1.2,1.1-1.5,1.9c-0.3,0.8-0.5,2.1-0.5,4v5.1h-1.8v-6.7
		c0-1.6-0.1-2.7-0.3-3.2c-0.2-0.6-0.6-1-1.1-1.4c-0.5-0.3-1.1-0.5-1.8-0.5c-0.8,0-1.6,0.2-2.3,0.7c-0.7,0.5-1.2,1.1-1.6,1.9
		c-0.3,0.8-0.5,2-0.5,3.6v5.6H284V190.9z"/>
	<path class="st0" d="M308.1,190.9h1.8v2.4c0.7-0.9,1.5-1.6,2.4-2.1c0.9-0.5,1.9-0.7,3-0.7c1.9,0,3.6,0.7,5,2c1.4,1.3,2.1,3,2.1,4.8
		c0,1.9-0.7,3.6-2,4.9c-1.4,1.3-3,2-4.9,2c-1.1,0-2.1-0.2-3-0.6c-0.9-0.4-1.7-1.1-2.5-1.9v7h-1.8V190.9z M315.1,192.2
		c-1.5,0-2.8,0.5-3.8,1.5c-1,1-1.6,2.3-1.6,3.8c0,1,0.2,1.9,0.7,2.7c0.5,0.8,1.1,1.4,2,1.9c0.9,0.5,1.8,0.7,2.7,0.7
		c0.9,0,1.8-0.2,2.7-0.7c0.8-0.5,1.5-1.1,2-2c0.5-0.8,0.7-1.7,0.7-2.6c0-0.9-0.2-1.8-0.7-2.6c-0.5-0.8-1.1-1.5-2-1.9
		C317,192.4,316.1,192.2,315.1,192.2"/>
	<path class="st0" d="M339.1,190.9V204h-1.7v-2.3c-0.7,0.9-1.6,1.5-2.5,1.9c-0.9,0.4-1.9,0.6-3,0.6c-1.9,0-3.6-0.7-4.9-2
		c-1.4-1.3-2-3-2-4.9c0-1.9,0.7-3.5,2.1-4.8c1.4-1.3,3-2,5-2c1.1,0,2.1,0.2,3,0.7c0.9,0.5,1.7,1.1,2.4,2.1v-2.4H339.1z M332.1,192.2
		c-1,0-1.9,0.2-2.7,0.7c-0.8,0.5-1.5,1.1-2,1.9c-0.5,0.8-0.7,1.7-0.7,2.6c0,0.9,0.2,1.8,0.7,2.6c0.5,0.8,1.2,1.5,2,2
		c0.8,0.5,1.7,0.7,2.7,0.7c1,0,1.9-0.2,2.7-0.7c0.9-0.5,1.5-1.1,2-1.9c0.5-0.8,0.7-1.7,0.7-2.7c0-1.5-0.5-2.8-1.6-3.8
		C334.9,192.7,333.6,192.2,332.1,192.2"/>
	<path class="st0" d="M343,190.9h1.8v2.3c0.7-0.9,1.5-1.6,2.3-2c0.9-0.4,1.8-0.7,2.8-0.7c1,0,1.9,0.2,2.7,0.7c0.8,0.5,1.4,1.2,1.7,2
		c0.4,0.8,0.6,2.2,0.6,3.9v6.7h-1.8v-6.2c0-1.5-0.1-2.5-0.2-3c-0.2-0.9-0.6-1.5-1.2-2c-0.6-0.4-1.3-0.7-2.3-0.7c-1.1,0-2,0.3-2.9,1
		c-0.8,0.7-1.4,1.5-1.7,2.5c-0.2,0.7-0.3,1.8-0.3,3.6v4.8H343V190.9z"/>
	<polygon class="st0" points="357.2,190.9 359.1,190.9 363.7,201 368.3,190.9 370.1,190.9 362,208.8 360.2,208.8 362.8,203 	"/>
</g>
<g>
	<path class="st0" d="M374.8,154.2l-0.2,0l-0.6,0.6c-0.5,1.5-0.9,2.2-1.1,2.2c-2.1,3.7-4.3,7.3-6.7,10.9c-2.9,3.9-5.2,5.9-6.8,5.9
		c-1,0-1.6-0.5-1.6-1.6c0.3-1.4,1.1-3.3,2.6-5.7c2.2-3.1,3.5-5.1,3.7-5.9c1.5-2.2,2.6-5.7,3.2-10.5c0-1.6-0.4-3.5-1.2-5.7
		c-1-2-2-3.2-3-3.4c0-0.8-2.1-1.7-6.2-2.6c-0.2,0-0.3,0.1-0.3,0.3c-0.4,0-0.9,0-1.3-0.1c-4.5,0-8.7,2.9-12.6,8.5
		c-0.5,1.1-0.9,1.6-1.1,1.6l-0.2,0c0-2.4-1.1-5-3.3-7.9c-1.5-1.7-3.8-2.8-6.7-3.4c-0.1,0-0.3,0.1-0.5,0.2c-0.2-0.1-0.4-0.1-0.7-0.1
		l-2.7,0c-0.5,0.3-1.3,0.6-2.5,1c-3,1.1-5.6,3.3-8,6.7c-1.1,1.9-2.3,4.4-3.7,7.5l-0.4,1c-0.2,0.3-0.5,0.6-0.8,1.2
		c-1.3,3.8-2.9,7.3-4.8,10.5c-2.6,4.6-5.1,6.9-7.3,7c-0.5,0-0.9-1.1-1.3-3.4l0.1-0.8c0-0.3-0.1-0.7-0.2-1.1c0-2.6,1.9-9.5,5.9-20.7
		c1-3.1,1.5-5,1.5-5.7l-0.8-0.6l-0.6,0c-0.4,0-0.8,1-1.3,3.1c-1,2.7-2,5.6-3,8.8c-1.9,5.2-3.1,8.1-3.6,8.8c-2,5.5-4.2,9.1-6.8,10.6
		l-2,0.8l-0.6,0c-1.3,0-2.6-0.7-4.1-2.3c-1.2-3-1.7-5.5-1.8-7.5l0-1.8c0-2.8,0.1-4.7,0.4-5.7v-0.2l-0.2-0.3c0.5-3.2,1-5.6,1.6-7.1
		c1.2-4,2-6,2.4-6c0.2-1.2,0.7-2.5,1.5-3.7l0-0.6c0-0.2-0.1-0.3-0.3-0.3l-0.3,0c-1.9,1.4-3.8,4.1-5.9,8c-2.6,5-3.8,7.9-3.9,8.8
		c-0.4,1-0.8,2.1-1.2,3.5c-0.5,0.9-0.9,1.5-1.1,1.7c-1.9,4.2-4.1,7.5-6.5,10c-2.6,3.4-4.6,5.1-5.9,5.1c-1.3,0-2.1-1-2.4-3.1
		c0.1-2.3,1.3-5.9,3.4-10.7c3.5-8.9,5.2-14.4,5.3-16.5c0-0.8-0.1-1.6-0.2-2.3c0-2.3-1.5-3.7-4.3-4.1l-0.7,0c-1.9,0-3.7,1-5.2,3
		c0,0.1,0.3,0.3,0.8,0.6h0.2c0.4-0.3,1.4-0.7,2.8-1.2c0.5,0.2,0.8,0.8,0.8,1.6c0,1.1-0.9,3.6-2.7,7.4c-1.1,1.8-2.2,4-3.4,6.8
		l-0.2,0.1c-1,1.4-1.6,2.2-1.8,2.2c-2.8,4.7-5,8.1-6.8,10.3c-3.3,3.9-5.8,5.9-7.3,5.9l-1.1,0c-1.1-0.5-1.7-1.3-1.7-2.1l0-0.9
		c0.6-2.9,1.1-4.7,1.6-5.4c0-0.9,1.5-4.4,4.6-10.5c2.8-6.1,4.7-10.6,5.8-13.4c2.7-5.8,5.3-14.2,7.9-25.2c1-7.4,1.6-12.4,1.5-15.2
		l0-2.3c-0.3-6.4-0.9-9.9-1.8-10.4l-0.5,0c-1,0.7-2.2,1.7-3.5,3.1c-1.8,1.8-2.7,2.8-2.7,2.9c-2,1.8-4.8,4.8-8.5,9.1
		c0,0.2,0.1,0.3,0.2,0.3c0.6,1.4,1.4,4.6,2.4,9.6c0.2,3,0.3,4.4,0.5,4.4c0,0.3,0,0.6-0.1,0.8l0.5,5.5c-0.3,5.1-0.6,7.7-0.8,7.7
		c0,2.8-0.3,5.6-1.1,8.3c-1.2,5.5-2.3,9.7-3.2,12.6c-0.3,1-0.6,1.9-0.8,2.7l-0.2,0.1c-1,1.4-1.6,2.2-1.8,2.2
		c-2.8,4.7-5,8.1-6.8,10.3c-3.3,3.9-5.8,5.9-7.3,5.9l-1.1,0c-1.1-0.6-1.7-1.3-1.7-2.1l0-0.9c0.6-2.9,1.1-4.7,1.6-5.4
		c0-0.9,1.5-4.4,4.6-10.5c2.8-6.1,4.7-10.6,5.8-13.4c2.7-5.8,5.3-14.2,7.9-25.2c1-7.4,1.6-12.4,1.5-15.2l0-2.3
		c-0.3-6.4-0.9-9.9-1.8-10.4l-0.5,0c-1,0.7-2.2,1.7-3.5,3.1c-1.8,1.8-2.7,2.8-2.7,2.9c-2,1.8-4.8,4.8-8.5,9.1c0,0.2,0.1,0.3,0.2,0.3
		c0.6,1.4,1.4,4.6,2.4,9.6c0.2,3,0.3,4.4,0.5,4.4c0,0.3,0,0.6-0.1,0.8l0.5,5.5c-0.3,5.1-0.6,7.7-0.8,7.7c0,2.8-0.3,5.6-1.1,8.3
		c-1.2,5.5-2.3,9.7-3.2,12.6c-0.2,0.8-0.5,1.6-0.7,2.3c-0.2,0.2-0.4,0.5-0.6,0.9c0,0.2-1.4,2.4-4.3,6.4c-1,1.7-3.1,4.2-6.1,7.4
		c-2.2,2.4-4.2,3.9-6.2,4.3c-1.3,0-2.2-1.1-2.8-3.5l0-3c0-0.9,0.6-3.5,1.9-7.9c2.9-6.8,4.4-11.8,4.4-14.8c-0.3-0.5-0.7-0.8-1.2-0.8
		l-0.5,0.3c0,1.6-1.1,5.3-3.4,11.2c-1.1,2.9-2.5,5.4-4.1,7.6c-1.6,2.6-3.5,4.7-5.8,6.5c-1.9,1.8-4.1,2.8-6.6,2.8l-1.8-0.6
		c-2.6-1.6-4-3.9-4-6.8c0-0.2,0.1-0.7,0.3-1.5l-0.2-0.3c0.4-1.8,0.7-3,1-3.6c0.7-3.6,3.4-7.9,7.9-12.8c4.9-5,9.5-7.5,14-7.5l1.4,0
		c1.8,0,3.9,0.9,6.2,2.8c0.9,1.1,1.6,2.8,2,5.3c0,4.6-1.9,8.3-5.8,11.1l0,0.3l0.3,0.5c1.4,0,2.8-0.7,4.2-2.1
		c2.5-2.8,3.7-5.7,3.7-8.6c0-2.4-0.7-4.8-2-7.3c-1.1-1.4-3-2.7-5.8-4l-0.9,0c-0.2,0-1-0.1-2.4-0.3l-0.3,0c-0.7,0-1.3,0.1-2,0.2
		l-0.9-0.1c-4.3,0.5-9.2,2.3-14.7,5.4c-2.4,1.5-4.6,3.2-6.6,5.3c-1.7,1.9-3.2,4-4.5,6.2c-1.5,2.5-2.4,5.6-2.9,9.1l0.2,0.3
		c0,0.3-0.1,0.6-0.3,1c0.1,1.2,0.2,2.1,0.2,2.7c1.2,3.8,2.2,5.7,2.9,5.7c1,1.5,3.1,2.7,6.1,3.6c4.5-0.2,6.8-0.5,6.8-0.8
		c2.2-1,3.9-2.1,5.1-3.2c3.6-3.2,5.6-5.4,6.1-6.7l0.3,0c-0.3,0.9-0.4,1.8-0.4,2.6l0,2.3c0,0.7,0,1.1,0.1,1.2c0.9,2.7,2.3,4,4.1,4
		l0.6,0c1.5,0,3-0.6,4.5-1.8c1.3-0.4,3.9-3,7.7-7.8c0.9-1.2,1.8-2.4,2.6-3.6c-1.3,3.6-1.9,5.9-1.9,6.7l0,1.4l-0.1,1.5
		c0.1,0,0.3,0.6,0.5,1.7c1.2,1.5,2.4,2.3,3.7,2.3c0.8,0,1.5-0.1,2-0.2c0.7,0,2.3-1,4.7-3.1c1.4-1.1,3.3-3.4,5.7-6.8
		c0.9-1.3,1.6-2.5,2.3-3.5c-1.3,3.6-1.9,5.8-1.9,6.6l0,1.4l-0.1,1.5c0.1,0,0.3,0.6,0.5,1.7c1.2,1.5,2.4,2.3,3.7,2.3
		c0.8,0,1.5-0.1,2-0.2c0.7,0,2.3-1,4.7-3.1c1.4-1.1,3.3-3.4,5.7-6.8c1-1.5,1.8-2.8,2.6-3.9c-0.7,2.6-1,4.7-1,6.4
		c0,1.9,0.5,3.7,1.4,5.3c1.6,1.4,3.4,2.1,5.1,2.2c0.6,0,1.7-0.1,3.1-0.4c2.1,0,4.7-2.2,7.7-6.7c1.4-1.9,2.7-3.6,3.7-5.2
		c-0.1,0.8-0.1,1.8-0.1,3c0,1.7,0.5,3.4,1.4,5.2c2,2.4,4.1,3.6,6.5,3.6l0.9,0c3.4,0,6.6-1.3,9.4-3.8c1.1-1.2,2.4-2.9,4.1-5.1
		c0,0.4,0,0.8-0.1,1.2c0,1.5,0.3,2.9,0.8,4c0,1.4,1.2,2.1,3.5,2.3c1-0.3,1.6-0.4,1.9-0.5c-0.2,0.4-0.3,0.7-0.3,0.9
		c0.1,0.2,0.3,0.4,0.8,0.6c0.3,0,0.7-0.3,1.3-1c1.9-2.3,4.1-5.9,6.5-10.8c2.6-6.2,5-11.7,7.3-16.4c2.3-3.2,4.5-4.8,6.6-4.8h0.3
		c3,0,5.2,1.4,6.5,4.2c0.9,1.4,1.5,3.9,2,7.7c0,3.7-0.6,7.5-2,11.2c-1.2,4.1-2.6,7.1-4.3,9.1l0,0.7l0.3,0c1.5,0,4-2.6,7.3-7.7
		c2.1-3.2,3.6-6.2,4.7-9.1l1.2-2.4c1.6-4.9,4-9,7.2-12.1c1-1,2.6-1.7,4.9-2.3l0,0.2l0.9-0.2c2.4,1,3.7,1.8,3.7,2.3
		c0.3,0.5,0.6,1.5,1,3.2c0,2.6-0.4,5.3-1.3,8.2c-2.7,7.7-4,13.1-4,16.3c0.2,1,0.3,1.6,0.3,1.8c0.8,1.9,2.3,2.8,4.3,2.8
		c1,0,2.4-0.3,4.3-1c2.8-2.3,4.6-4.4,5.6-6.4c4-6.1,6.7-10.7,7.9-13.8l0-0.3C375.8,154.4,375.4,154.2,374.8,154.2z"/>
	<path class="st0" d="M264.8,132.2c6.5,0.5,12.8-12.5,5.2-14.6c-6.1-1.7-8.9,5.3-7.9,10.2C262.3,128.8,263.4,132.1,264.8,132.2z"/>
	<path class="st0" d="M122.8,146.6c0.8-0.9,2.4-4.4,4.6-10.6c1.3-4.8,2.5-8.9,3.7-12.3c2.3-7.7,4.9-13.1,7.6-16
		c2.4-1.6,3.6-2.5,3.6-2.8c0-0.4-0.2-0.6-0.5-0.6l-0.5,0c-2.2,0.6-5.2,2.6-9,6.1c-3.3,3.7-5.6,7-7.1,10c-2,3.6-4.2,8.5-6.6,14.8
		c-2.9,8.8-5.6,15.1-8,18.9c-2.9,4.4-6.2,7.8-9.7,10.2c-4.3,2.1-6.4,3.4-6.4,3.9l0.2,0.3c4.6-0.9,8.1-2.3,10.4-4.3
		c3.1-1.6,6.6-4.3,10.3-8.1C118.6,153.1,121,149.9,122.8,146.6z"/>
	<path class="st0" d="M14.5,123.6l-0.1-0.1L14,124c-0.2,0.2-0.2,0.4-0.1,0.5C14.2,124.1,14.4,123.8,14.5,123.6z"/>
	<path class="st0" d="M405.2,8.5C364.2-2.6,344.8,44,351.1,77c0.5,1,0.8,2.2,0.8,3.4l0,0.2c2.2,8.1,8.4,24.3,16.3,26.7
		c-2.7,1.9-5.4,3.7-8.3,5.4c-4.6,2.8-9.9,4.3-15.3,4.5c-1.2,0-2.1,0.1-2.4,0.2c1.7,0-5.9,0.2-14.1-2.2
		c-14.1-4.3-26.7-10.3-38.4-19.3c-7.8-6-15.3-11.6-23.6-15.3c-1-0.4-5.3-2.3-10.2-3.3c-5.4-1-10.1-1.1-11.8-1.1
		c-19.5,0.4-39.4,10.1-58.9,11.8c-18.8,1.6-36.9-3.2-55.5-6c-17.3-2.6-33.5-4.4-51-2.9C63,80.5,29,96.6,17,120.2
		c-7.2,14.1-6.5,39.7,7.1,48.3c15.1,9.5,36.2,11.1,49.3,0.5c15.9-12.7,25.6-31.1,37.5-47.3c7.3-10.1,18-23.8,32.1-22.5
		c9,0.8,16.8,8.7,14.4,18.1c-3,11.7-17.6,18.3-27.2,23.7c9-0.5,19.6-1.8,28.3,1.4c14.4,5.4,6,20.6-3.1,26.8
		c-14.5,9.8-31.1,4.3-45.8-1.7c8.7,5.1,17.7,10.6,27.7,12.5c14.4,2.7,30.6-4.4,34.6-19.3c0.7-2.5,0.8-4.8,0.6-7c0,0,0,0,0,0
		c0-3.2-2-6.7-2-6.7l0,0c-0.8-1.7-1.9-3.2-3.1-4.7c0,0,0,0,0,0c-0.9-1.2-2.3-2.6-3.7-3.8c0,0,0,0,0.1,0.1c-1-0.9-2.1-1.8-3.2-2.7
		c-0.2-0.2-0.4-0.3-0.4-0.3l0,0c-2.7-2.1-5.6-4-8.4-5.8c6.3-4.4,15-10.1,14.9-18.8c0-2.6-0.8-4.9-2.2-7c-0.4-0.4-0.8-0.9-1.1-1.4
		l0.1,0c-3.4-4.2-9-6.9-14-7.9c-17.7-3.7-30.6,8.2-39.8,21.6c-7.8,11.4-15.6,20.1-24.5,30.5c-10.3,12.1-23,19.5-39.5,18.4
		c-8.1-0.5-25.7-5.7-28.8-13.8c-4.3-11.5,2.6-20.3,7.6-29.2c2.7-4.9,8.3-9.5,12.6-13.2c8.2-6.9,19.7-13.3,29.1-17.2
		c15.5-6.4,31.5-6.3,48.3-5.2c24.1,1.5,44.4,5,68.6,4.4c1.6,0,3.2-0.2,4.8-0.6c10.3-2.4,52.4-11.6,73.3-7.2
		c22.7,4.7,30.5,25.7,50.7,34.4c3.9,1.7,7.8,2.8,11.8,3.5l0,0c0,0,34.1,6.8,47.8-13.1l-0.3,0C415.1,109.1,456.2,22.4,405.2,8.5z"/>
</g>
</svg>
