<?xml version="1.0" encoding="utf-8"?>
<!-- Generator: Adobe Illustrator 19.0.0, SVG Export Plug-In . SVG Version: 6.00 Build 0)  -->
<svg version="1.1" id="Layer_1" xmlns="http://www.w3.org/2000/svg" xmlns:xlink="http://www.w3.org/1999/xlink" x="0px" y="0px"
	 viewBox="0 0 1019.6 871.5" preserveAspectRatio="xMidYMin meet" style="enable-background:new 0 0 1019.6 871.5;" xml:space="preserve">
<style type="text/css">
	.st0{opacity:7.000000e-002;clip-path:url(#XMLID_27_);fill:#00A887;}
	.st1{clip-path:url(#XMLID_27_);fill:#51BAAC;}
	.st2{clip-path:url(#XMLID_27_);}
	.st3{fill:#A59583;}
	.st4{fill:#51BAAC;}
	.st5{opacity:0.12;clip-path:url(#XMLID_27_);fill:#51BAAC;}
</style>
<g id="XMLID_1738_">
	<defs>
		<rect id="XMLID_1737_" x="0" y="-70.7" width="1017.9" height="1041.5"/>
	</defs>
	<clipPath id="XMLID_27_">
		<use xlink:href="#XMLID_1737_"  style="overflow:visible;"/>
	</clipPath>
	<path id="XMLID_1673_" class="st0" d="M-820.2,521.6l1839,1.2V105.5C970.2,60.7,848.5,4.4,726.7,4.4
		c-271.1,0-428.9,285.5-428.9,285.5c-126.1-24.2-221,7.7-283,63.5c-11.4-1.5-18.3-1.9-18.3-1.9C-82.2,124.1-327,167.8-327,167.8
		S-379.5-33.3-650.5-33.3c-68.8,0-124.7,17.5-169.7,43.5l-1,512.7"/>
	<path id="XMLID_1672_" class="st1" d="M1018.8,427c0,0-403.5-186.4-965.7-10.8l0,0c-96.8,21.2-193.7,34-289-2.9
		c-59.1-22.9-102-61.3-150.8-102.4c-7.8-6.6-15.7-13-23.7-19.2c-20.9-16.1-42.5-30.7-65.3-43.4c-63-35.1-131.9-57.3-201.7-67.1
		c-8-1.1-144.2-11.3-144.2,0.3c0,0,0.3,320.9,0.4,341.3h-0.1V966h1840.1V427z"/>
	<g id="XMLID_1649_" class="st2">
		<g id="XMLID_1669_">
			<rect id="XMLID_1671_" x="528.1" y="221" class="st3" width="12.1" height="124.1"/>
			<path id="XMLID_1670_" class="st4" d="M586.7,201.1c0,27.2-23.6,49.3-52.6,49.3c-29.1,0-52.5-22.1-52.5-49.3
				c0-27.3,23.5-49.4,52.5-49.4C563.2,151.7,586.7,173.8,586.7,201.1z"/>
		</g>
		<g id="XMLID_1654_">
			<rect id="XMLID_1668_" x="485.7" y="288.7" class="st3" width="6.8" height="56.3"/>
			<path id="XMLID_1667_" class="st4" d="M518.5,277.6c0,15.2-13.2,27.6-29.4,27.6c-16.3,0-29.4-12.4-29.4-27.6
				c0-15.3,13.2-27.7,29.4-27.7C505.3,249.9,518.5,262.3,518.5,277.6z"/>
		</g>
		<path id="XMLID_1650_" class="st4" d="M688.2,330.6v-26.7v-10.1v-4.2v-4.1h7.1l-53.8-53.8l-20.1,20.1l-20.1-20.1l-53.8,53.8h5.5
			V338h0v13.2h27.5h107.5V330.6z M611.6,290.9h-32v-17.6h32V290.9z M631.5,290.9v-17.6h32v17.6H631.5z"/>
	</g>
	<path id="XMLID_1648_" class="st5" d="M1016.8,480.2c0,0-810.7-120.2-1588.1,490.5h1589.2L1016.8,480.2z"/>
</g>
</svg>
