<svg xmlns="http://www.w3.org/2000/svg" xmlns:xlink="http://www.w3.org/1999/xlink" version="1.1" id="Layer_1" x="0px" y="0px" viewBox="0 0 1019.6 871.5" preserveAspectRatio="xMinYMax slice" style="enable-background:new 0 0 1019.6 871.5; overflow: hidden;" xml:space="preserve">
<style type="text/css">
	.st0{opacity:7.000000e-002;fill:#00A887;}
	.st1{opacity:0.48;fill:#51BAAC;}
	.st2{clip-path:url(#XMLID_27_);}
	.st3{opacity:0.18;fill:#F4DF61;}
	.st4{fill:#F4DF61;}
	.st5{opacity:0.22;fill:#C5E4DD;}
	.st6{fill:#675252;}
	.st7{opacity:0.17;fill:#675252;}
	.st8{fill:none;stroke:#5B5B5C;stroke-miterlimit:10;}
	.st9{fill:#5A5A5B;}
	.st10{fill:#88C9B9;}
	.st11{opacity:5.000000e-002;clip-path:url(#XMLID_42_);}
	.st12{fill:#010202;}
	.st13{clip-path:url(#XMLID_42_);}
	.st14{fill:#FFFFFF;}
	.st15{fill:#35A390;}
	.st16{opacity:5.000000e-002;clip-path:url(#XMLID_43_);}
	.st17{clip-path:url(#XMLID_43_);}
	.st18{fill:#3F8F75;}
	.st19{fill:#3D8A73;}
	.st20{opacity:5.000000e-002;clip-path:url(#XMLID_44_);}
	.st21{clip-path:url(#XMLID_44_);}
	.st22{fill:#52B9AB;}
	.st23{opacity:5.000000e-002;clip-path:url(#XMLID_45_);}
	.st24{clip-path:url(#XMLID_45_);}
</style>
<path id="XMLID_2841_" class="st0" d="M1019.6,639.4c-27-24.9-70.2-47.4-137.9-47.4C731,592,692.1,742.7,692.1,742.7  c-70.1-13.4-122.9,4.3-157.3,35.3c-6.3-0.9-10.2-1.1-10.2-1.1c-43.8-126.4-179.9-102.1-179.9-102.1S315.5,563,164.8,563  C69.5,563,18.9,623.3-5.4,667.7v203.8h1025V639.4z"/>
<path id="XMLID_2840_" class="st1" d="M1018.3,631.9v9.9l-6.7,11v2h-1.2v3.1h-1.2v1.6h1.2v1.2h-1.2v1.6h1.2v1.2h-1.2v1.6h1.2v1.2  h-1.2v1.6h1.2v2.3h1.2v3.5h-5.6V689h-3.5v121.9h-4v-64.2h-8.6v-62.9h-28.4c-7.2,0-13,6.3-13,14v48.9H944v-27.5h-16.1  c-10.5,0-19.1,12.3-19.1,27.5v27.4h-6.9v44.7h-0.9l-5.5-5.9l-5.5,5.9h-7.6l-5.5-5.9l-5.5,5.9h-3.9v-17.1v0h0l-16.6-17.9l-5.3,5.7  l-11.3,12.2h0v0l0,0h0v20.1h-0.2v-0.2h-18.2l-14.7-15.8l0,0l0,0l-14.7,15.8h-11.3v22.7h-7.1v-4.9c2.6-0.3,4.7-2.5,4.7-5.2  c0-2.9-2.4-5.3-5.3-5.3c-2.9,0-5.3,2.4-5.3,5.3c0,2.7,2,4.9,4.7,5.2v4.9h-10.5v-3.6c2.1-0.2,3.7-2,3.7-4.2c0-2.3-1.9-4.2-4.2-4.2  c-2.3,0-4.2,1.9-4.2,4.2c0,2.2,1.6,3.9,3.7,4.2v3.6h-8.8V842c1.6-0.2,2.8-1.5,2.8-3.2c0-1.8-1.4-3.2-3.2-3.2c-1.8,0-3.2,1.4-3.2,3.2  c0,1.6,1.2,3,2.8,3.2v2.3H572c-74.2-47.5-213-120.6-364.2-120.6c-77.4,0-149.7,18.6-211.2,43.2l0.9,104.6l1022.1,0l0.1-230.1  L1018.3,631.9z"/>

<path id="XMLID_2834_" class="st5" d="M339.7,328.7c16.7,0,12.4-28.1-10-23.9c0,0-3.8-14.8-18.6-14.8c-14.8,0-17.7,11-17.7,11  s-13.4-2.4-17.7,10c0,0-9.1,0.5-11.4,6.7c-2.4,6.2-1.9,11,7.2,11S339.7,328.7,339.7,328.7z"/>
<path id="XMLID_2833_" class="st5" d="M654.2,171.4c-15.1,0-11.2-25.4,9-21.5c0,0,3.4-13.3,16.8-13.3c13.3,0,15.9,9.9,15.9,9.9  s12.1-2.2,15.9,9c0,0,8.2,0.4,10.3,6c2.2,5.6,1.7,9.9-6.5,9.9C707.6,171.4,654.2,171.4,654.2,171.4z"/>
<path id="XMLID_2832_" class="st5" d="M812.4,309.4c-34.3,0-25.5-57.8,20.6-49c0,0,7.8-30.4,38.2-30.4c30.4,0,36.2,22.5,36.2,22.5  s27.4-4.9,36.2,20.6c0,0,18.6,1,23.5,13.7c4.9,12.7,3.9,22.5-14.7,22.5C933.9,309.4,812.4,309.4,812.4,309.4z"/>
<g id="XMLID_2798_">
	<circle id="XMLID_2831_" class="st6" cx="350.1" cy="858.1" r="2.9"/>
	<g id="XMLID_2800_">
		<path id="XMLID_2828_" class="st6" d="M350.1,844.3c-7.7,0-13.9,6.2-13.9,13.9s6.2,13.9,13.9,13.9c7.7,0,13.9-6.2,13.9-13.9    S357.8,844.3,350.1,844.3z M350.1,866.1c-4.4,0-7.9-3.6-7.9-7.9s3.6-7.9,7.9-7.9c4.4,0,7.9,3.6,7.9,7.9S354.5,866.1,350.1,866.1z"/>
		<path id="XMLID_2825_" class="st6" d="M163.4,844.3c-7.7,0-13.9,6.2-13.9,13.9s6.2,13.9,13.9,13.9c7.7,0,13.9-6.2,13.9-13.9    S171.1,844.3,163.4,844.3z M163.4,866.1c-4.4,0-7.9-3.6-7.9-7.9s3.6-7.9,7.9-7.9c4.4,0,7.9,3.6,7.9,7.9S167.8,866.1,163.4,866.1z"/>
		<g id="XMLID_2801_">
			<path id="XMLID_2819_" class="st6" d="M266.9,847h-22.9v-7.7v-7.4v-6.4v-5.9v-6.4v-4.9h-6.4v4.9h-37v-3.9h-6.4v3.9h-38.8v-4.9     H149v4.9v6.4v5.9v6.4v7.4v8.7c3.2-4.5,8.5-7.5,14.4-7.5c9.7,0,17.7,7.9,17.7,17.7h30.8c0-1.6,0.2-3.2,0.7-4.7     c0.7-2.4,1.8-4.6,3.3-6.4c3.2-4,8.2-6.5,13.7-6.5c5.5,0,10.4,2.5,13.7,6.5c1.5,1.9,2.7,4,3.3,6.4h20c0-0.6-0.1-1.2-0.1-1.8     C266.5,850,266.6,848.5,266.9,847z M237.6,819.6v5.9h-37v-5.9H237.6z M155.4,819.6h38.8v5.9h-38.8V819.6z M155.4,839.3v-7.4h38.8     v7.4H155.4z M200.7,839.3v-7.4h37v7.4H200.7z"/>
			<path id="XMLID_2816_" class="st6" d="M350.1,840.5c3.7,0,7.1,1.1,10,3.1c0-0.1,0-0.3,0-0.4c-0.1-2.3-0.4-4.4-0.7-6.3     c0.3,0,0.5,0,0.8,0c0.2-0.3,0.8-1.1,0.9-2.4c0-1.3-0.7-2.2-0.9-2.5h-2.2c-0.5-1.4-1.1-2.5-1.5-3.3c-1.3-0.6-2.5-1.2-3.9-1.8     v-11.4h-8.7v8c-0.6-0.2-1.2-0.4-1.8-0.5c-5.4-1.5-12.6-1.8-16.5-1.4l-0.4,0.1l-4.6-21.8c-0.2-1.1-1.3-2-2.4-2h-28     c-1.4,0-2.5,1.1-2.5,2.5V826l-0.1,1.7c1-0.1,2.1-0.2,3.2-0.2c13.3,0,24.2,10.8,24.2,24.2c0,1.4-0.1,2.7-0.4,4h18.3     C333.8,847.1,341.2,840.5,350.1,840.5z M293.5,825.3v-22.7h21.6l3.6,19.7L293.5,825.3z"/>
			<path id="XMLID_2813_" class="st6" d="M290.3,831.8c-11.1,0-20.1,9-20.1,20.1c0,11.1,9,20.1,20.1,20.1c11.1,0,20.1-9,20.1-20.1     C310.4,840.8,301.4,831.8,290.3,831.8z M290.3,863.7c-6.5,0-11.8-5.3-11.8-11.8s5.3-11.8,11.8-11.8c6.5,0,11.8,5.3,11.8,11.8     S296.9,863.7,290.3,863.7z"/>
			<circle id="XMLID_2812_" class="st6" cx="290.3" cy="851.9" r="4.5"/>
			<path id="XMLID_2809_" class="st7" d="M350.1,850.2c-4.4,0-7.9,3.6-7.9,7.9s3.6,7.9,7.9,7.9c4.4,0,7.9-3.6,7.9-7.9     S354.5,850.2,350.1,850.2z M350.1,861c-1.6,0-2.9-1.3-2.9-2.9c0-1.6,1.3-2.9,2.9-2.9c1.6,0,2.9,1.3,2.9,2.9     C353,859.7,351.7,861,350.1,861z"/>
			<path id="XMLID_2806_" class="st6" d="M229.5,844.3c-7.7,0-13.9,6.2-13.9,13.9s6.2,13.9,13.9,13.9c7.7,0,13.9-6.2,13.9-13.9     S237.2,844.3,229.5,844.3z M229.5,866.1c-4.4,0-7.9-3.6-7.9-7.9s3.6-7.9,7.9-7.9c4.4,0,7.9,3.6,7.9,7.9S233.9,866.1,229.5,866.1z     "/>
			<circle id="XMLID_2805_" class="st6" cx="229.5" cy="858.1" r="2.9"/>
			<path id="XMLID_2802_" class="st7" d="M163.4,850.2c-4.4,0-7.9,3.6-7.9,7.9s3.6,7.9,7.9,7.9c4.4,0,7.9-3.6,7.9-7.9     S167.8,850.2,163.4,850.2z M163.4,861c-1.6,0-2.9-1.3-2.9-2.9c0-1.6,1.3-2.9,2.9-2.9c1.6,0,2.9,1.3,2.9,2.9     C166.3,859.7,165,861,163.4,861z"/>
		</g>
	</g>
	<circle id="XMLID_2799_" class="st6" cx="163.4" cy="858.1" r="2.9"/>
</g>
<g id="XMLID_2538_">
	<path id="XMLID_2797_" class="st8" d="M169.5,726.7c-2.7,33.1-8.9,65.7-17.6,88.6c-0.3,0.7-0.5-0.4-0.3-1.1   c8.5-24.1,14.8-53.9,17.6-87.5C169.2,726.1,169.5,726.1,169.5,726.7L169.5,726.7z"/>
	<path id="XMLID_2796_" class="st9" d="M123.4,727.3c17.1,26.6,26.2,56.8,28,87.2c0.1,0.9,1.2,1.1,1.2,0.2   c-0.7-30.2-11.7-62-28.7-88C123.5,726.4,123.1,726.9,123.4,727.3L123.4,727.3z"/>
	<g id="XMLID_2795_">
		<path id="XMLID_49_" class="st9" d="M127.8,679.8c0,0,0.7,2,1.8,5.5c0.6,1.7,1.2,3.9,2,6.3c0.4,1.2,0.8,2.5,1.2,3.9    c0.4,1.4,0.7,2.9,1.1,4.4c0.7,3.1,1.5,6.4,2.3,9.9c0.8,3.5,1.7,7.2,2.5,11c0.9,3.8,1.7,7.8,2.6,11.8c0.9,4,1.7,8.1,2.5,12.3    c0.8,4.1,1.6,8.2,2.3,12.3c0.7,4.1,1.4,8.1,2.1,11.9c0.6,3.9,1.2,7.6,1.7,11.2c0.5,3.6,0.9,7,1.3,10.1c0.2,1.6,0.4,3.1,0.5,4.5    c0.1,1.4,0.1,2.8,0.2,4.1c0.2,2.6,0.1,4.8,0.2,6.6c0.1,3.7,0.1,5.8,0.1,5.8s-0.3-2.1-0.8-5.7c-0.3-1.8-0.5-4-0.9-6.5    c-0.2-1.3-0.4-2.6-0.7-4c-0.2-1.4-0.3-2.9-0.5-4.5c-0.4-3.1-0.9-6.5-1.3-10c-0.5-3.5-1.1-7.3-1.7-11.2c-0.7-3.9-1.4-7.9-2.1-11.9    c-0.8-4-1.5-8.2-2.3-12.3c-0.8-4.1-1.6-8.2-2.5-12.2c-0.8-4-1.7-8-2.6-11.8c-0.8-3.8-1.7-7.5-2.5-11c-0.8-3.5-1.6-6.8-2.3-9.9    c-0.3-1.5-0.8-3-1.1-4.4c-0.3-1.4-0.5-2.7-0.8-4c-0.5-2.5-0.9-4.7-1.3-6.5C128.2,681.8,127.8,679.8,127.8,679.8z"/>
	</g>
	<path id="XMLID_2794_" class="st9" d="M151.6,650.8c-0.2,27.1,0.2,53.8,0.3,81c0.1,27.1-0.4,56.4,0.1,83.5c0,0.9,0.5,0.7,0.5-0.1   c1-27,0.7-56.8,0.6-83.9c-0.1-27.1-0.2-54-1.2-81C151.8,649.8,151.6,648.5,151.6,650.8L151.6,650.8z"/>
	<g id="XMLID_2787_">
		<path id="XMLID_2793_" class="st10" d="M127.3,688.3L127.3,688.3c-17.1,5-38.5-14.3-43.5-31.4v0c-4-17.1,5.3-34.6,22.4-40.6h0    c17.1-5,34.6,5.1,40.6,22.2v0C152.8,655.6,144.4,683.3,127.3,688.3z"/>
		<polygon id="XMLID_2792_" class="st10" points="126.6,683.3 126.1,681.6 126.1,682.5 125.5,681.7 126,683.5 125.1,696.4    129.5,695.1 130,695 134.4,693.7   "/>
		<g id="XMLID_2788_">
			<defs>
				<path id="XMLID_2789_" d="M127.4,689.3L127.4,689.3c-17.1,4-38.6-15.3-43.6-32.4v0c-4-17.1,5.4-34.6,22.5-38.6h0      c17.1-6,34.5,3.1,40.5,20.2v0C151.8,655.6,144.5,683.3,127.4,689.3z"/>
			</defs>
			<clipPath id="XMLID_42_">
				<use xlink:href="#XMLID_2789_" style="overflow:visible;"/>
			</clipPath>
			<g id="XMLID_2791_" class="st11">
				<g id="XMLID_88_">
					<path id="XMLID_93_" class="st12" d="M88.4,671.8c-4.4,3.1-3.2,10.6-1.2,15c2.1,4.4,5.7,7.9,10.1,10c9.6,4.6,20.7,3.4,30-1.3       c24.8-12.5,32-47.4,22.5-71.4c-5.3-13.4-18.9-36-36.3-27.4c-5.2,2.6-3.7,10.7,1.6,12.1c11.5,3,18.3,18.3,20.7,28.8       c2.6,11.5,0.1,24-6.2,34c-4.6,7.4-12.9,13.2-21.9,12.8c-2.4-0.1-5.7-0.7-8.4-2.7c-3.5-2.5-4.2-8-7.9-9.9       C90.5,671.3,89.3,671.2,88.4,671.8L88.4,671.8z"/>
				</g>
			</g>
			<g id="XMLID_2790_" class="st13">
				<g id="XMLID_108_">
					<path id="XMLID_112_" class="st14" d="M92.4,630.4c-8.9,13.2-5.5,33.9,7.5,43.3c1.1,0.8,2.3-0.7,1.8-1.8       c-3-5.7-5.8-12.9-6-19.4c-0.3-6.3,1.7-13.2,4-19.1C101.3,629,94.8,626.9,92.4,630.4L92.4,630.4z"/>
				</g>
			</g>
		</g>
	</g>
	<g id="XMLID_2780_">
		<path id="XMLID_2786_" class="st15" d="M150.6,662.3L150.6,662.3c-17.8,2-33.8-22.6-34.8-40.4v0c-1-17.8,13.4-32.6,31.2-34.6h0    c17.8,0,33.8,13.6,34.8,31.4v0C182.8,636.5,168.4,661.3,150.6,662.3z"/>
		<polygon id="XMLID_2785_" class="st15" points="151.1,657.8 151,655.9 150.7,656.7 150.3,655.8 150.4,657.8 146.5,670.4    151.1,670.1 151.6,670.1 156.2,669.9   "/>
		<g id="XMLID_2781_">
			<defs>
				<path id="XMLID_2782_" d="M150.6,662.3L150.6,662.3c-17.8,2-34.8-22.6-35.8-40.4v0c0-17.8,14.4-32.6,32.2-33.6h0      c17.8-1,32.8,12.7,33.8,30.5v0C181.8,636.6,168.4,661.3,150.6,662.3z"/>
			</defs>
			<clipPath id="XMLID_43_">
				<use xlink:href="#XMLID_2782_" style="overflow:visible;"/>
			</clipPath>
			<g id="XMLID_2784_" class="st16">
				<g id="XMLID_83_">
					<path id="XMLID_87_" class="st12" d="M116,637.6c-4.5,2.1-4.9,9.9-4,14.2c1.1,5.1,4.1,9.3,8.2,12.5c8.2,6.4,19.3,7.7,29.3,5.2       c12.7-3.2,22.5-12.7,29.4-23.4c8.3-12.9,10.8-28,8.5-43c-1.9-12.3-11.1-38.7-28.3-32.7c-5.3,1.8-6.3,8.7-1.5,11.8       c9.8,6.4,13.4,20.3,13.4,31.3c0.1,12.3-4.9,24.3-13.6,32.9c-6.4,6.3-15.9,10.3-24.6,7.7c-2.5-0.7-5.2-1.9-7.3-4.3       c-3.1-3.4-2.5-8.8-5.6-11.8C118.5,637.1,117.2,637.1,116,637.6L116,637.6z"/>
				</g>
			</g>
			<g id="XMLID_2783_" class="st17">
				<g id="XMLID_106_">
					<path id="XMLID_132_" class="st14" d="M130.4,598c-11.8,10.7-13.5,31.7-3,43.8c0.9,1,2.5-0.1,2.2-1.3c-1.6-6.2-2.5-13.6-1.3-20       c1.1-6.3,4.7-12.6,8.4-17.8C139.3,598.9,133.6,595.1,130.4,598L130.4,598z"/>
				</g>
			</g>
		</g>
	</g>
	<g id="XMLID_2546_">
		<path id="XMLID_2779_" class="st18" d="M124.1,729.3L124.1,729.3c-17,5-39.3-12.8-43.3-29.8v0c-6-17,3.4-34.2,20.3-40.2h0    c17-7,34.7,3.3,39.7,20.3v0C147.8,696.5,141.1,724.3,124.1,729.3z"/>
		<polygon id="XMLID_2778_" class="st19" points="123.3,724.9 122.7,723.2 122.7,724.1 122.1,723.3 122.7,725.1 122.1,738    126.5,736.6 127,736.5 131.3,735   "/>
		<g id="XMLID_2547_">
			<defs>
				<path id="XMLID_2548_" d="M124.2,730.3L124.2,730.3c-17,5-39.4-13.8-44.4-30.8v0c-5-17,4.5-34.2,21.4-40.2h0      c17-6,34.6,3.4,39.6,20.3v0C146.8,696.6,141.2,724.3,124.2,730.3z"/>
			</defs>
			<clipPath id="XMLID_44_">
				<use xlink:href="#XMLID_2548_" style="overflow:visible;"/>
			</clipPath>
			<g id="XMLID_2550_" class="st20">
				<g id="XMLID_78_">
					<path id="XMLID_82_" class="st12" d="M84.8,714.3c-4.3,3.3-3.1,10.6-0.9,14.9c2.1,4.4,5.9,7.8,10.3,9.8       c9.6,4.4,20.7,3,29.9-1.9c24.6-13,30.8-48,20.9-71.9c-5.4-13.2-19.8-35.7-36.9-26.8c-5,2.6-3.9,10.8,1.6,12.1       c11.6,2.7,18.9,17.6,21.5,28.1c2.8,11.5,0.9,24-5.1,34.2c-4.5,7.7-12.8,13.7-21.5,13.6c-3-0.1-5.6-0.5-8.6-2.4       c-3.6-2.4-4.5-7.9-8.2-9.7C86.9,713.9,85.7,713.6,84.8,714.3L84.8,714.3z"/>
				</g>
			</g>
			<g id="XMLID_2549_" class="st21">
				<g id="XMLID_134_">
					<path id="XMLID_138_" class="st14" d="M87.8,672.7c-8.6,13.5-4.8,34.1,8.5,43.1c1.1,0.8,2.4-0.7,1.8-1.8       c-3.1-5.6-6-12.5-6.5-19c-0.5-6.4,1.3-13.4,3.4-19.4C96.6,671.4,90.1,669.1,87.8,672.7L87.8,672.7z"/>
				</g>
			</g>
		</g>
	</g>
	<g id="XMLID_2539_">
		<path id="XMLID_2545_" class="st22" d="M171,724.3L171,724.3c17.7,1,35.8-19.9,38.8-37.6v0c2-17.6-10.3-34.4-28-36.4h0    c-17.6-4-34,9.4-37,26.9v0C142.8,694.9,153.4,721.3,171,724.3z"/>
		<polygon id="XMLID_2544_" class="st22" points="170.9,718.9 171.2,717.2 171.4,718 171.8,717.2 171.5,719 174.3,731.7 169.7,731    169.2,730.9 164.6,730.3   "/>
		<g id="XMLID_2540_">
			<defs>
				<path id="XMLID_2541_" d="M170.9,724.3L170.9,724.3c17.6,2,33.9-20.1,37.9-37.7v0c3-17.7-9.4-34.3-27.1-36.3h0      c-17.6-3-34.9,9.3-37.9,26.9v0C140.8,694.8,153.2,723.3,170.9,724.3z"/>
			</defs>
			<clipPath id="XMLID_45_">
				<use xlink:href="#XMLID_2541_" style="overflow:visible;"/>
			</clipPath>
			<g id="XMLID_2543_" class="st23">
				<g id="XMLID_58_">
					<path id="XMLID_97_" class="st12" d="M204.6,702.3c-3.3,2.4-3.2,7.1-5.9,10.3c-2.3,2.7-5.2,3.8-8.3,4.6       c-0.7,0.2-1.4,0.3-2.1,0.4c1.8-0.3,0.3-0.1-0.2,0c-3.1,0.1-5.8-0.2-8.7-1.1c-4.7-1.4-8.6-4.1-12-7.7       c-8.1-8.6-12.3-20.8-11.9-32.5c0.2-6.4,1.7-12.8,4.4-18.6c2.3-4.8,5.9-11.6,11.1-13.9c5.8-2.4,6.7-10.6,0-12.8       c-15.9-5.2-26.1,15.2-30,27.3c-4.6,14.4-3.9,30,2.3,43.8c9.1,20.4,32.5,39.3,55.5,27.9c4.8-2.4,8.8-6.2,10.9-11.2       c1.9-4.5,3.1-13.8-2.1-16.5C206.7,701.9,205.4,701.7,204.6,702.3L204.6,702.3z"/>
				</g>
			</g>
			<g id="XMLID_2542_" class="st24">
				<g id="XMLID_140_">
					<path id="XMLID_144_" class="st14" d="M190.8,666.1c3.1,5.5,6.2,12.4,6.5,18.8c0.3,6.4-1.2,13.3-3.4,19.3       c-0.5,1.3,1.3,2.1,2.2,1.3c11.8-11.3,11.7-32.2,0.9-44.1C194,657.9,188.7,662.3,190.8,666.1L190.8,666.1z"/>
				</g>
			</g>
		</g>
	</g>
</g>
</svg>
